<!-- Generated by IcoMoon.io -->
<svg version="1.1" xmlns="http://www.w3.org/2000/svg" width="1024" height="1024" viewBox="0 0 1024 1024">
<g id="icomoon-ignore">
</g>
<path fill="#eaf1ff" d="M614.912 532.736c-16.896 10.752-34.816 18.688-53.76 23.808-18.944 4.608-37.376 6.912-55.296 6.912-17.408 0-32.768-1.792-46.080-5.376-5.632 13.312-11.008 23.296-16.128 29.952 4.096 6.144 47.104 9.216 129.024 9.216 51.2 0 87.296 7.936 108.288 23.808 9.728 6.656 18.176 17.152 25.344 31.488 7.68 14.336 11.52 32.768 11.52 55.296 0 23.040-11.264 46.080-33.792 69.12s-50.688 41.216-84.48 54.528c-33.792 13.312-67.328 19.968-100.608 19.968-55.296 0-100.096-11.008-134.4-33.024-34.304-21.504-51.456-48.384-51.456-80.64 0-6.144 8.96-21.248 26.88-45.312 17.92-23.552 29.696-37.12 35.328-40.704-5.12-2.56-14.080-11.008-26.88-25.344-12.8-14.848-19.968-25.344-21.504-31.488 6.656-18.432 27.136-41.472 61.44-69.12-39.936-24.064-59.904-64.512-59.904-121.344 0-45.056 15.36-79.36 46.080-102.912 31.232-23.552 72.192-35.328 122.88-35.328 51.2 0 89.856 6.912 115.968 20.736 43.52-7.68 74.24-11.52 92.16-11.52 18.432 0 30.464 0.256 36.096 0.768 0 12.288-3.072 26.368-9.216 42.24-5.632 15.36-11.008 26.112-16.128 32.256l-66.048-15.36c12.8 18.432 19.2 42.24 19.2 71.424s-4.864 54.784-14.592 76.8c-9.728 21.504-23.040 37.888-39.936 49.152zM611.072 752.384c3.584-9.728 5.376-20.992 5.376-33.792s-5.632-22.272-16.896-28.416c-11.264-5.632-24.576-8.448-39.936-8.448-59.904 0-99.584-0.512-119.040-1.536-4.096 8.704-9.216 20.992-15.36 36.864-6.144 16.384-9.216 26.112-9.216 29.184s2.048 7.424 6.144 13.056c4.096 6.144 12.8 12.544 26.112 19.2 13.824 6.656 30.464 9.984 49.92 9.984 19.968 0 43.264-4.608 69.888-13.824s40.96-16.64 43.008-22.272zM548.864 344.576c-11.776-13.824-28.416-20.736-49.92-20.736s-38.4 6.912-50.688 20.736c-11.776 13.824-17.664 34.048-17.664 60.672 0 26.112 6.144 46.592 18.432 61.44s28.928 22.272 49.92 22.272c45.568 0 68.352-28.16 68.352-84.48 0-26.112-6.144-46.080-18.432-59.904z"></path>
</svg>
