<!-- Generated by IcoMoon.io -->
<svg version="1.1" xmlns="http://www.w3.org/2000/svg" width="1024" height="1024" viewBox="0 0 1024 1024">
<g id="icomoon-ignore">
</g>
<path fill="#eaf1ff" d="M591.872 340.992l-13.824-0.768c-16.384 0-27.904 8.192-34.56 24.576-6.656 15.872-10.24 43.776-10.752 83.712 30.72 0.512 54.784 2.816 72.192 6.912 1.024 0 7.168 0.768 18.432 2.304-1.536 23.040-7.68 45.056-18.432 66.048h-72.192c-2.048 109.568-3.328 191.744-3.84 246.528 50.688 3.584 78.848 8.192 84.48 13.824 0 16.896-6.4 37.12-19.2 60.672h-213.504l-6.912-42.24c39.936-14.336 62.976-22.016 69.12-23.040l-8.448-255.744h-53.76l2.304-43.776c13.312-9.216 30.464-15.872 51.456-19.968v-20.736c0-60.416 11.776-104.448 35.328-132.096 21.504-25.088 52.736-37.632 93.696-37.632 41.472 0 85.248 11.264 131.328 33.792l0.768 12.288c0 28.16-3.584 59.648-10.752 94.464-15.36 4.096-29.44 6.144-42.24 6.144s-22.272-0.512-28.416-1.536l-22.272-73.728z"></path>
</svg>
