<svg width="40" height="40" viewBox="0 0 40 40" fill="none" xmlns="http://www.w3.org/2000/svg">
<rect width="40" height="40" rx="20" fill="#121B2A" fill-opacity="0.1"/>
<path d="M24.02 20.81C23.36 21.23 22.66 21.54 21.92 21.74C21.18 21.92 20.46 22.01 19.76 22.01C19.08 22.01 18.48 21.94 17.96 21.8C17.74 22.32 17.53 22.71 17.33 22.97C17.49 23.21 19.17 23.33 22.37 23.33C24.37 23.33 25.78 23.64 26.6 24.26C26.98 24.52 27.31 24.93 27.59 25.49C27.89 26.05 28.04 26.77 28.04 27.65C28.04 28.55 27.6 29.45 26.72 30.35C25.84 31.25 24.74 31.96 23.42 32.48C22.1 33 20.79 33.26 19.49 33.26C17.33 33.26 15.58 32.83 14.24 31.97C12.9 31.13 12.23 30.08 12.23 28.82C12.23 28.58 12.58 27.99 13.28 27.05C13.98 26.13 14.44 25.6 14.66 25.46C14.46 25.36 14.11 25.03 13.61 24.47C13.11 23.89 12.83 23.48 12.77 23.24C13.03 22.52 13.83 21.62 15.17 20.54C13.61 19.6 12.83 18.02 12.83 15.8C12.83 14.04 13.43 12.7 14.63 11.78C15.85 10.86 17.45 10.4 19.43 10.4C21.43 10.4 22.94 10.67 23.96 11.21C25.66 10.91 26.86 10.76 27.56 10.76C28.28 10.76 28.75 10.77 28.97 10.79C28.97 11.27 28.85 11.82 28.61 12.44C28.39 13.04 28.18 13.46 27.98 13.7L25.4 13.1C25.9 13.82 26.15 14.75 26.15 15.89C26.15 17.03 25.96 18.03 25.58 18.89C25.2 19.73 24.68 20.37 24.02 20.81ZM23.87 29.39C24.01 29.01 24.08 28.57 24.08 28.07C24.08 27.57 23.86 27.2 23.42 26.96C22.98 26.74 22.46 26.63 21.86 26.63C19.52 26.63 17.97 26.61 17.21 26.57C17.05 26.91 16.85 27.39 16.61 28.01C16.37 28.65 16.25 29.03 16.25 29.15C16.25 29.27 16.33 29.44 16.49 29.66C16.65 29.9 16.99 30.15 17.51 30.41C18.05 30.67 18.7 30.8 19.46 30.8C20.24 30.8 21.15 30.62 22.19 30.26C23.23 29.9 23.79 29.61 23.87 29.39ZM21.44 13.46C20.98 12.92 20.33 12.65 19.49 12.65C18.65 12.65 17.99 12.92 17.51 13.46C17.05 14 16.82 14.79 16.82 15.83C16.82 16.85 17.06 17.65 17.54 18.23C18.02 18.81 18.67 19.1 19.49 19.1C21.27 19.1 22.16 18 22.16 15.8C22.16 14.78 21.92 14 21.44 13.46Z" fill="#EAF1FF"/>
</svg>
