<svg width="40" height="40" viewBox="0 0 40 40" fill="none" xmlns="http://www.w3.org/2000/svg">
<rect width="40" height="40" rx="20" fill="#121B2A" fill-opacity="0.1"/>
<path d="M23.12 13.32L22.58 13.29C21.94 13.29 21.49 13.61 21.23 14.25C20.97 14.87 20.83 15.96 20.81 17.52C22.01 17.54 22.95 17.63 23.63 17.79C23.67 17.79 23.91 17.82 24.35 17.88C24.29 18.78 24.05 19.64 23.63 20.46H20.81C20.73 24.74 20.68 27.95 20.66 30.09C22.64 30.23 23.74 30.41 23.96 30.63C23.96 31.29 23.71 32.08 23.21 33H14.87L14.6 31.35C16.16 30.79 17.06 30.49 17.3 30.45L16.97 20.46H14.87L14.96 18.75C15.48 18.39 16.15 18.13 16.97 17.97V17.16C16.97 14.8 17.43 13.08 18.35 12C19.19 11.02 20.41 10.53 22.01 10.53C23.63 10.53 25.34 10.97 27.14 11.85L27.17 12.33C27.17 13.43 27.03 14.66 26.75 16.02C26.15 16.18 25.6 16.26 25.1 16.26C24.6 16.26 24.23 16.24 23.99 16.2L23.12 13.32Z" fill="#EAF1FF"/>
</svg>
