<svg width="142" height="100" viewBox="0 0 142 100" fill="none" xmlns="http://www.w3.org/2000/svg">
<path d="M70.917 58.3333C88.167 58.3333 102.167 64.875 102.167 72.9167V83.3333H39.667V72.9167C39.667 64.875 53.667 58.3333 70.917 58.3333ZM98.0003 72.9167C98.0003 67.1667 85.8753 62.5 70.917 62.5C55.9587 62.5 43.8337 67.1667 43.8337 72.9167V79.1667H98.0003V72.9167ZM70.917 20.8333C74.7847 20.8333 78.4941 22.3698 81.229 25.1047C83.9639 27.8396 85.5003 31.5489 85.5003 35.4167C85.5003 39.2844 83.9639 42.9937 81.229 45.7287C78.4941 48.4636 74.7847 50 70.917 50C67.0493 50 63.3399 48.4636 60.605 45.7287C57.8701 42.9937 56.3337 39.2844 56.3337 35.4167C56.3337 31.5489 57.8701 27.8396 60.605 25.1047C63.3399 22.3698 67.0493 20.8333 70.917 20.8333ZM70.917 25C68.1543 25 65.5048 26.0975 63.5513 28.051C61.5978 30.0045 60.5003 32.654 60.5003 35.4167C60.5003 38.1793 61.5978 40.8289 63.5513 42.7824C65.5048 44.7359 68.1543 45.8333 70.917 45.8333C73.6797 45.8333 76.3292 44.7359 78.2827 42.7824C80.2362 40.8289 81.3337 38.1793 81.3337 35.4167C81.3337 32.654 80.2362 30.0045 78.2827 28.051C76.3292 26.0975 73.6797 25 70.917 25Z" fill="white"/>
<path d="M38.333 56.6667C52.133 56.6667 56 59.5 58.5 63L45.5 67.5L43.5 72V76.6667H13.333V68.3333C13.333 61.9 24.533 56.6667 38.333 56.6667ZM51 62C50 61 49 60.5 38.333 60C26.3663 60 16.6663 63.7333 16.6663 68.3333V73.3333H40L42 67.5L47 64L51 62ZM38.333 26.6667C41.4272 26.6667 44.3947 27.8958 46.5826 30.0837C48.7705 32.2717 49.9997 35.2391 49.9997 38.3333C49.9997 41.4275 48.7705 44.395 46.5826 46.5829C44.3947 48.7708 41.4272 50 38.333 50C35.2388 50 32.2714 48.7708 30.0834 46.5829C27.8955 44.395 26.6663 41.4275 26.6663 38.3333C26.6663 35.2391 27.8955 32.2717 30.0834 30.0837C32.2714 27.8958 35.2388 26.6667 38.333 26.6667ZM38.333 30C36.1229 30 34.0033 30.878 32.4405 32.4408C30.8776 34.0036 29.9997 36.1232 29.9997 38.3333C29.9997 40.5435 30.8776 42.6631 32.4405 44.2259C34.0033 45.7887 36.1229 46.6667 38.333 46.6667C40.5431 46.6667 42.6628 45.7887 44.2256 44.2259C45.7884 42.6631 46.6663 40.5435 46.6663 38.3333C46.6663 36.1232 45.7884 34.0036 44.2256 32.4408C42.6628 30.878 40.5431 30 38.333 30Z" fill="white"/>
<path d="M103.667 56.6667C89.867 56.6667 86 59.5 83.5 63L96.5 67.5L98.5 72V76.6667H128.667V68.3333C128.667 61.9 117.467 56.6667 103.667 56.6667ZM91 62C92 61 93 60.5 103.667 60C115.634 60 125.334 63.7333 125.334 68.3333V73.3333H102L100 67.5L95 64L91 62ZM103.667 26.6667C100.573 26.6667 97.6053 27.8958 95.4174 30.0837C93.2295 32.2717 92.0003 35.2391 92.0003 38.3333C92.0003 41.4275 93.2295 44.395 95.4174 46.5829C97.6053 48.7708 100.573 50 103.667 50C106.761 50 109.729 48.7708 111.917 46.5829C114.104 44.395 115.334 41.4275 115.334 38.3333C115.334 35.2391 114.104 32.2717 111.917 30.0837C109.729 27.8958 106.761 26.6667 103.667 26.6667ZM103.667 30C105.877 30 107.997 30.878 109.56 32.4408C111.122 34.0036 112 36.1232 112 38.3333C112 40.5435 111.122 42.6631 109.56 44.2259C107.997 45.7887 105.877 46.6667 103.667 46.6667C101.457 46.6667 99.3372 45.7887 97.7744 44.2259C96.2116 42.6631 95.3337 40.5435 95.3337 38.3333C95.3337 36.1232 96.2116 34.0036 97.7744 32.4408C99.3372 30.878 101.457 30 103.667 30Z" fill="white"/>
</svg>
