<!-- Generated by IcoMoon.io -->
<svg version="1.1" xmlns="http://www.w3.org/2000/svg" width="1454" height="1024" viewBox="0 0 1454 1024">
<g id="icomoon-ignore">
</g>
<path fill="#fff" d="M726.19 597.333c176.64 0 320 66.987 320 149.334v106.666h-640v-106.666c0-82.347 143.36-149.334 320-149.334zM1003.523 746.667c0-58.88-124.16-106.667-277.333-106.667s-277.333 47.787-277.333 106.667v64h554.666v-64zM726.19 213.333c39.605 0 77.59 15.734 105.595 43.739s43.738 65.989 43.738 105.595c0 39.605-15.733 77.588-43.738 105.595-28.005 28.005-65.99 43.738-105.595 43.738s-77.59-15.733-105.595-43.738c-28.005-28.006-43.738-65.99-43.738-105.595 0-39.606 15.733-77.59 43.738-105.595s65.99-43.739 105.595-43.739zM726.19 256c-28.29 0-55.421 11.238-75.425 31.242s-31.242 47.135-31.242 75.425c0 28.289 11.238 55.421 31.242 75.425s47.135 31.241 75.425 31.241c28.29 0 55.421-11.237 75.425-31.241s31.242-47.136 31.242-75.425c0-28.29-11.238-55.421-31.242-75.425s-47.135-31.242-75.425-31.242z"></path>
<path fill="#fff" d="M392.53 580.267c141.312 0 180.91 29.013 206.51 64.853l-133.12 46.080-20.48 46.080v47.787h-308.91v-85.334c0-65.877 114.688-119.466 256-119.466zM522.24 634.88c-10.24-10.24-20.48-15.36-129.71-20.48-122.539 0-221.867 38.229-221.867 85.333v51.2h238.937l20.48-59.733 51.2-35.84 40.96-20.48zM392.53 273.067c31.685 0 62.072 12.586 84.476 34.99s34.991 52.791 34.991 84.476-12.587 62.072-34.991 84.476c-22.404 22.404-52.791 34.991-84.476 34.991s-62.071-12.587-84.476-34.991c-22.404-22.404-34.991-52.791-34.991-84.476s12.587-62.071 34.991-84.476c22.405-22.404 52.791-34.99 84.476-34.99zM392.53 307.2c-22.631 0-44.336 8.991-60.339 24.994-16.004 16.003-24.994 37.708-24.994 60.339s8.99 44.337 24.994 60.34c16.003 16.003 37.708 24.994 60.339 24.994s44.337-8.991 60.34-24.994c16.003-16.003 24.993-37.708 24.993-60.34 0-22.631-8.99-44.336-24.993-60.339s-37.709-24.994-60.34-24.994z"></path>
<path fill="#fff" d="M1061.55 580.267c-141.312 0-180.91 29.013-206.51 64.853l133.12 46.080 20.48 46.080v47.787h308.91v-85.334c0-65.877-114.688-119.466-256-119.466zM931.84 634.88c10.24-10.24 20.48-15.36 129.71-20.48 122.542 0 221.87 38.229 221.87 85.333v51.2h-238.94l-20.48-59.733-51.2-35.84-40.96-20.48zM1061.55 273.067c-31.683 0-62.072 12.586-84.476 34.99s-34.991 52.791-34.991 84.476 12.587 62.072 34.991 84.476c22.404 22.404 52.793 34.991 84.476 34.991s62.075-12.587 84.48-34.991c22.395-22.404 34.99-52.791 34.99-84.476s-12.595-62.071-34.99-84.476c-22.405-22.404-52.797-34.99-84.48-34.99zM1061.55 307.2c22.63 0 44.339 8.991 60.344 24.994 15.995 16.003 24.986 37.708 24.986 60.339s-8.991 44.337-24.986 60.34c-16.005 16.003-37.714 24.994-60.344 24.994s-44.337-8.991-60.34-24.994c-16.003-16.003-24.993-37.708-24.993-60.34 0-22.631 8.99-44.336 24.993-60.339s37.71-24.994 60.34-24.994z"></path>
</svg>
