<svg width="32" height="32" viewBox="0 0 32 32" fill="none" xmlns="http://www.w3.org/2000/svg">
<path d="M10.6665 20.5334V11.4667C10.6665 11.2545 10.7508 11.051 10.9008 10.901C11.0508 10.751 11.2543 10.6667 11.4665 10.6667H20.5332C20.7453 10.6667 20.9488 10.751 21.0989 10.901C21.2489 11.051 21.3332 11.2545 21.3332 11.4667V20.5334C21.3332 20.7455 21.2489 20.949 21.0989 21.099C20.9488 21.2491 20.7453 21.3334 20.5332 21.3334H11.4665C11.2543 21.3334 11.0508 21.2491 10.9008 21.099C10.7508 20.949 10.6665 20.7455 10.6665 20.5334Z" stroke="#1E1E1E" stroke-width="2" stroke-linecap="round" stroke-linejoin="round"/>
<path d="M22.6665 5.33335V2.66669M15.9998 5.33335V2.66669M9.33317 5.33335V2.66669M9.33317 26.6667V29.3334M15.9998 26.6667V29.3334M22.6665 26.6667V29.3334M26.6665 22.6667H29.3332M26.6665 16H29.3332M26.6665 9.33335H29.3332M5.33317 22.6667H2.6665M5.33317 16H2.6665M5.33317 9.33335H2.6665M26.6665 6.13335V25.8667C26.6665 26.0789 26.5822 26.2823 26.4322 26.4324C26.2822 26.5824 26.0787 26.6667 25.8665 26.6667H6.13317C5.921 26.6667 5.71751 26.5824 5.56749 26.4324C5.41746 26.2823 5.33317 26.0789 5.33317 25.8667V6.13335C5.33317 5.92118 5.41746 5.7177 5.56749 5.56767C5.71751 5.41764 5.921 5.33335 6.13317 5.33335H25.8665C26.0787 5.33335 26.2822 5.41764 26.4322 5.56767C26.5822 5.7177 26.6665 5.92118 26.6665 6.13335Z" stroke="#1E1E1E" stroke-width="2" stroke-linecap="round" stroke-linejoin="round"/>
</svg>
