<svg width="191" height="57" viewBox="0 0 191 57" fill="none" xmlns="http://www.w3.org/2000/svg">
<g clip-path="url(#clip0_2376_254)">
<g clip-path="url(#clip1_2376_254)">
<g clip-path="url(#clip2_2376_254)">
<path d="M183.739 56.8101H7.09082C3.13391 56.8101 0.0249023 53.7011 0.0249023 49.7442V7.34864C0.0249023 3.39172 3.13391 0.282715 7.09082 0.282715H183.739C187.696 0.282715 190.805 3.39172 190.805 7.34864V49.7442C190.805 53.5598 187.696 56.8101 183.739 56.8101Z" fill="#12100B"/>
<path d="M67.0099 14.6974C67.0099 15.828 66.7272 16.8172 66.0206 17.5238C65.1727 18.3717 64.1835 18.7956 62.9116 18.7956C61.6398 18.7956 60.6505 18.3717 59.8026 17.5238C58.9547 16.6759 58.5308 15.6866 58.5308 14.4148C58.5308 13.1429 58.9547 12.1537 59.8026 11.3058C60.6505 10.3165 61.6398 9.89258 62.9116 9.89258C63.4769 9.89258 64.0422 10.0339 64.6075 10.3165C65.1727 10.5992 65.5967 10.8818 65.8793 11.3058L65.1727 12.0124C64.6074 11.3058 63.9009 11.0231 62.9116 11.0231C62.0637 11.0231 61.2158 11.3058 60.6505 12.0124C59.9439 12.5776 59.6613 13.4255 59.6613 14.4148C59.6613 15.404 59.9439 16.2519 60.6505 16.8172C61.3571 17.3825 62.0637 17.8064 62.9116 17.8064C63.9009 17.8064 64.6075 17.5238 65.314 16.8172C65.738 16.3932 66.0206 15.828 66.0206 15.1214H62.9116V14.1321H67.0099C67.0099 14.2734 67.0099 14.5561 67.0099 14.6974Z" fill="white"/>
<path d="M73.5106 11.1642H69.695V13.8493H73.228V14.8385H69.695V17.5236H73.5106V18.5128H68.5645V10.0337H73.5106V11.1642Z" fill="white"/>
<path d="M78.1741 18.6544H77.0435V11.1645H74.6411V10.1753H80.5765V11.1645H78.1741V18.6544Z" fill="white"/>
<path d="M84.6748 18.6544V10.1753H85.8054V18.6544H84.6748Z" fill="white"/>
<path d="M90.6101 18.6544H89.4796V11.1645H87.0771V10.1753H92.8712V11.1645H90.4688V18.6544H90.6101Z" fill="white"/>
<path d="M104.035 17.5238C103.187 18.3717 102.198 18.7956 100.926 18.7956C99.6544 18.7956 98.6652 18.3717 97.8173 17.5238C96.9694 16.6759 96.5454 15.6866 96.5454 14.4148C96.5454 13.1429 96.9694 12.1537 97.8173 11.3058C98.6652 10.3165 99.6544 9.89258 100.926 9.89258C102.198 9.89258 103.187 10.3165 104.035 11.1644C104.883 12.0124 105.307 13.0016 105.307 14.2734C105.307 15.5453 104.883 16.6759 104.035 17.5238ZM98.6652 16.8172C99.2305 17.3825 100.078 17.8064 100.926 17.8064C101.774 17.8064 102.622 17.5238 103.187 16.8172C103.753 16.2519 104.177 15.404 104.177 14.4148C104.177 13.4255 103.894 12.5776 103.187 12.0124C102.622 11.4471 101.774 11.0231 100.926 11.0231C100.078 11.0231 99.2305 11.3058 98.6652 12.0124C98.0999 12.5776 97.676 13.4255 97.676 14.4148C97.676 15.404 97.9586 16.1106 98.6652 16.8172Z" fill="white"/>
<path d="M106.862 18.6544V10.1753H108.134L112.232 16.8173V15.1214V10.1753H113.362V18.6544H112.232L107.851 11.7298V13.4256V18.6544H106.862Z" fill="white"/>
<path d="M96.2629 30.9486C92.8713 30.9486 90.1862 33.4923 90.1862 37.0253C90.1862 40.4169 92.8713 43.102 96.2629 43.102C99.6545 43.102 102.34 40.5583 102.34 37.0253C102.34 33.4923 99.6545 30.9486 96.2629 30.9486ZM96.2629 40.5583C94.4258 40.5583 92.8713 39.0038 92.8713 36.884C92.8713 34.7642 94.4258 33.2097 96.2629 33.2097C98.1 33.2097 99.6545 34.6229 99.6545 36.884C99.6545 39.1451 98.1 40.5583 96.2629 40.5583ZM83.1203 30.9486C79.7287 30.9486 77.0436 33.4923 77.0436 37.0253C77.0436 40.4169 79.7287 43.102 83.1203 43.102C86.5119 43.102 89.197 40.5583 89.197 37.0253C89.197 33.4923 86.5119 30.9486 83.1203 30.9486ZM83.1203 40.5583C81.2832 40.5583 79.7287 39.0038 79.7287 36.884C79.7287 34.7642 81.2832 33.2097 83.1203 33.2097C84.9574 33.2097 86.5119 34.6229 86.5119 36.884C86.5119 39.1451 84.9574 40.5583 83.1203 40.5583ZM67.434 32.7857V35.3295H73.5106C73.3693 36.7427 72.8041 37.8732 72.0975 38.5798C71.2495 39.4277 69.8364 40.4169 67.434 40.4169C63.6184 40.4169 60.792 37.4493 60.792 33.6337C60.792 29.8181 63.7597 26.8504 67.434 26.8504C69.4124 26.8504 70.9669 27.6983 72.0975 28.6875L73.9346 26.8504C72.3801 25.4372 70.4016 24.3066 67.5753 24.3066C62.4878 24.3066 58.1069 28.5462 58.1069 33.6337C58.1069 38.7211 62.4878 42.9607 67.5753 42.9607C70.4016 42.9607 72.3801 42.1128 74.0759 40.2756C75.7717 38.5798 76.337 36.1774 76.337 34.3402C76.337 33.775 76.337 33.2097 76.1957 32.7857H67.434ZM131.593 34.7642C131.027 33.351 129.614 30.9486 126.505 30.9486C123.396 30.9486 120.852 33.351 120.852 37.0253C120.852 40.4169 123.396 43.102 126.788 43.102C129.473 43.102 131.169 41.4062 131.734 40.4169L129.755 39.0038C129.049 39.993 128.201 40.6996 126.788 40.6996C125.374 40.6996 124.527 40.1343 123.82 38.8624L131.875 35.4708L131.593 34.7642ZM123.396 36.7427C123.396 34.4816 125.233 33.2097 126.505 33.2097C127.494 33.2097 128.484 33.775 128.766 34.4816L123.396 36.7427ZM116.754 42.678H119.439V25.0132H116.754V42.678ZM112.515 32.3618C111.808 31.6552 110.677 30.9486 109.264 30.9486C106.297 30.9486 103.47 33.6337 103.47 37.0253C103.47 40.4169 106.155 42.9607 109.264 42.9607C110.677 42.9607 111.808 42.2541 112.373 41.5475H112.515V42.3954C112.515 44.6565 111.243 45.9284 109.264 45.9284C107.71 45.9284 106.579 44.7978 106.297 43.8086L104.035 44.7978C104.742 46.3523 106.438 48.3308 109.406 48.3308C112.515 48.3308 115.058 46.4936 115.058 42.1128V31.3726H112.515V32.3618ZM109.406 40.5583C107.568 40.5583 106.014 39.0038 106.014 36.884C106.014 34.7642 107.568 33.2097 109.406 33.2097C111.243 33.2097 112.656 34.7642 112.656 36.884C112.656 39.1451 111.243 40.5583 109.406 40.5583ZM143.887 25.0132H137.528V42.678H140.213V36.0361H143.887C146.855 36.0361 149.681 33.9163 149.681 30.5247C149.681 27.133 146.855 25.0132 143.887 25.0132ZM144.029 33.4923H140.213V27.4156H144.029C146.007 27.4156 147.138 29.1115 147.138 30.3833C146.996 31.7965 145.866 33.4923 144.029 33.4923ZM160.28 30.9486C158.302 30.9486 156.323 31.7965 155.617 33.6337L158.019 34.6229C158.584 33.6337 159.432 33.351 160.421 33.351C161.835 33.351 163.107 34.1989 163.248 35.6121V35.7534C162.824 35.4708 161.693 35.0468 160.563 35.0468C158.019 35.0468 155.475 36.46 155.475 39.0038C155.475 41.4062 157.595 42.9607 159.856 42.9607C161.693 42.9607 162.541 42.1128 163.248 41.2649H163.389V42.678H165.933V35.8947C165.65 32.6444 163.248 30.9486 160.28 30.9486ZM159.998 40.5583C159.15 40.5583 157.878 40.1343 157.878 39.0038C157.878 37.5906 159.432 37.1666 160.704 37.1666C161.835 37.1666 162.4 37.4493 163.107 37.7319C162.824 39.4277 161.411 40.5583 159.998 40.5583ZM174.836 31.3726L171.868 39.0038H171.727L168.618 31.3726H165.792L170.455 42.1128L167.77 48.0481H170.455L177.662 31.3726H174.836ZM151.094 42.678H153.78V25.0132H151.094V42.678Z" fill="white"/>
<path d="M14.722 10.8813C14.2981 11.3053 14.1567 12.0119 14.1567 12.8598V44.0912C14.1567 44.9391 14.4394 45.6457 14.8633 46.0696L15.0046 46.2109L32.5281 28.6875V28.5462V28.2635L14.722 10.8813Z" fill="#70C9F3"/>
<path d="M38.1808 34.4818L32.3867 28.6877V28.5464V28.2638L38.1808 22.4697L38.3221 22.611L45.2467 26.568C47.2252 27.6985 47.2252 29.5356 45.2467 30.6662L38.1808 34.4818Z" fill="url(#paint0_linear_2376_254)"/>
<path d="M38.3223 34.4818L32.387 28.5464L14.7222 46.0699C15.4288 46.7765 16.418 46.7765 17.6899 46.2112L38.3223 34.4818Z" fill="url(#paint1_linear_2376_254)"/>
<path d="M38.3223 22.4697L17.6899 10.8815C16.418 10.1749 15.4288 10.3163 14.7222 11.0229L32.387 28.6877L38.3223 22.4697Z" fill="url(#paint2_linear_2376_254)"/>
</g>
</g>
</g>
<defs>
<linearGradient id="paint0_linear_2376_254" x1="43.9589" y1="28.4998" x2="9.79259" y2="28.4998" gradientUnits="userSpaceOnUse">
<stop stop-color="#FFE000"/>
<stop offset="0.1941" stop-color="#FED000"/>
<stop offset="0.5469" stop-color="#F9B400"/>
<stop offset="0.8279" stop-color="#F6A200"/>
<stop offset="1" stop-color="#F59B00"/>
</linearGradient>
<linearGradient id="paint1_linear_2376_254" x1="35.0925" y1="31.7399" x2="2.95742" y2="63.875" gradientUnits="userSpaceOnUse">
<stop stop-color="#E7383D"/>
<stop offset="1" stop-color="#C81166"/>
</linearGradient>
<linearGradient id="paint2_linear_2376_254" x1="2.81425" y1="-7.01983" x2="29.0517" y2="19.2175" gradientUnits="userSpaceOnUse">
<stop stop-color="#229966"/>
<stop offset="0.3168" stop-color="#4EA663"/>
<stop offset="0.7398" stop-color="#70B65D"/>
<stop offset="1" stop-color="#7CBC5B"/>
</linearGradient>
<clipPath id="clip0_2376_254">
<rect width="190.83" height="56.81" fill="white"/>
</clipPath>
<clipPath id="clip1_2376_254">
<rect width="190.83" height="56.81" fill="white"/>
</clipPath>
<clipPath id="clip2_2376_254">
<rect width="190.78" height="56.81" fill="white" transform="translate(0.0249023)"/>
</clipPath>
</defs>
</svg>
