<svg width="32" height="32" viewBox="0 0 32 32" fill="none" xmlns="http://www.w3.org/2000/svg">
<path d="M12.7185 20.3067C10.5869 20.3067 8.78026 19.5662 7.29848 18.0853C5.81759 16.6053 5.07715 14.7991 5.07715 12.6667C5.07715 10.5342 5.81759 8.72756 7.29848 7.24667C8.77937 5.76578 10.586 5.02578 12.7185 5.02667C14.8509 5.02756 16.6571 5.76801 18.1371 7.24801C19.6171 8.72801 20.3576 10.5342 20.3585 12.6667C20.3585 13.5929 20.1945 14.4893 19.8665 15.356C19.5385 16.2227 19.1074 16.964 18.5731 17.58L26.4518 25.456C26.5763 25.5805 26.6429 25.7338 26.6518 25.916C26.6598 26.0965 26.5931 26.2578 26.4518 26.4C26.3096 26.5422 26.1523 26.6133 25.9798 26.6133C25.8074 26.6133 25.65 26.5422 25.5078 26.4L17.6305 18.5227C16.9638 19.0907 16.1971 19.5302 15.3305 19.8413C14.4638 20.1525 13.5927 20.308 12.7171 20.308M12.7171 18.9747C14.486 18.9747 15.9798 18.3658 17.1985 17.148C18.4163 15.9302 19.0251 14.4365 19.0251 12.6667C19.0251 10.8969 18.4167 9.40356 17.1998 8.18667C15.9829 6.96978 14.4896 6.3609 12.7198 6.36001C10.95 6.36001 9.45626 6.9689 8.23848 8.18667C7.0207 9.40445 6.41137 10.8978 6.41048 12.6667C6.40959 14.4356 7.01848 15.9289 8.23715 17.1467C9.45581 18.3645 10.9491 18.9733 12.7171 18.9733" fill="#121B2A"/>
</svg>
