<svg width="32" height="32" viewBox="0 0 32 32" fill="none" xmlns="http://www.w3.org/2000/svg">
<path d="M8.66683 26.6666C6.64016 26.6666 4.91127 25.9689 3.48016 24.5733C2.04905 23.1689 1.3335 21.4578 1.3335 19.44C1.3335 17.7066 1.8535 16.16 2.8935 14.8C3.94239 13.44 5.31127 12.5733 7.00016 12.2C7.56016 10.1555 8.67127 8.5022 10.3335 7.23998C12.0046 5.96887 13.8935 5.33331 16.0002 5.33331C18.6046 5.33331 20.8091 6.23998 22.6135 8.05331C24.4268 9.85776 25.3335 12.0622 25.3335 14.6666C26.8713 14.8444 28.1424 15.5111 29.1468 16.6666C30.1602 17.8044 30.6668 19.1378 30.6668 20.6666C30.6668 22.3378 30.0846 23.7555 28.9202 24.92C27.7557 26.0844 26.3379 26.6666 24.6668 26.6666M8.66683 24H24.6668C25.6002 24 26.3868 23.6755 27.0268 23.0266C27.6757 22.3866 28.0002 21.6 28.0002 20.6666C28.0002 19.7333 27.6757 18.9466 27.0268 18.3066C26.3868 17.6578 25.6002 17.3333 24.6668 17.3333H22.6668V14.6666C22.6668 12.8266 22.0179 11.2533 20.7202 9.94665C19.4224 8.64887 17.8491 7.99998 16.0002 7.99998C14.1602 7.99998 12.5868 8.64887 11.2802 9.94665C9.98239 11.2533 9.3335 12.8266 9.3335 14.6666H8.66683C7.37794 14.6666 6.28016 15.1244 5.3735 16.04C4.45794 16.9466 4.00016 18.0444 4.00016 19.3333C4.00016 20.6222 4.45794 21.7333 5.3735 22.6666C6.28016 23.5555 7.37794 24 8.66683 24Z" fill="#1E1E1E"/>
</svg>
