<svg width="32" height="32" viewBox="0 0 32 32" fill="none" xmlns="http://www.w3.org/2000/svg">
<path d="M21.3335 24C22.0407 24 22.719 24.281 23.2191 24.781C23.7192 25.2811 24.0002 25.9594 24.0002 26.6667C24.0002 27.3739 23.7192 28.0522 23.2191 28.5523C22.719 29.0524 22.0407 29.3333 21.3335 29.3333C20.6263 29.3333 19.948 29.0524 19.4479 28.5523C18.9478 28.0522 18.6668 27.3739 18.6668 26.6667C18.6668 25.9594 18.9478 25.2811 19.4479 24.781C19.948 24.281 20.6263 24 21.3335 24ZM21.3335 25.3333C20.9799 25.3333 20.6407 25.4738 20.3907 25.7239C20.1406 25.9739 20.0002 26.313 20.0002 26.6667C20.0002 27.0203 20.1406 27.3594 20.3907 27.6095C20.6407 27.8595 20.9799 28 21.3335 28C21.6871 28 22.0263 27.8595 22.2763 27.6095C22.5264 27.3594 22.6668 27.0203 22.6668 26.6667C22.6668 26.313 22.5264 25.9739 22.2763 25.7239C22.0263 25.4738 21.6871 25.3333 21.3335 25.3333ZM9.3335 24C10.0407 24 10.719 24.281 11.2191 24.781C11.7192 25.2811 12.0002 25.9594 12.0002 26.6667C12.0002 27.3739 11.7192 28.0522 11.2191 28.5523C10.719 29.0524 10.0407 29.3333 9.3335 29.3333C8.62625 29.3333 7.94798 29.0524 7.44788 28.5523C6.94778 28.0522 6.66683 27.3739 6.66683 26.6667C6.66683 25.9594 6.94778 25.2811 7.44788 24.781C7.94798 24.281 8.62625 24 9.3335 24ZM9.3335 25.3333C8.97987 25.3333 8.64074 25.4738 8.39069 25.7239C8.14064 25.9739 8.00016 26.313 8.00016 26.6667C8.00016 27.0203 8.14064 27.3594 8.39069 27.6095C8.64074 27.8595 8.97987 28 9.3335 28C9.68712 28 10.0263 27.8595 10.2763 27.6095C10.5264 27.3594 10.6668 27.0203 10.6668 26.6667C10.6668 26.313 10.5264 25.9739 10.2763 25.7239C10.0263 25.4738 9.68712 25.3333 9.3335 25.3333ZM24.0002 8H5.6935L9.0935 16H20.0002C20.4402 16 20.8268 15.7867 21.0668 15.4667L25.0668 10.1333C25.2402 9.90667 25.3335 9.62667 25.3335 9.33333C25.3335 8.97971 25.193 8.64057 24.943 8.39052C24.6929 8.14048 24.3538 8 24.0002 8ZM20.0002 17.3333H9.16016L8.1335 19.4133L8.00016 20C8.00016 20.3536 8.14064 20.6928 8.39069 20.9428C8.64074 21.1929 8.97987 21.3333 9.3335 21.3333H24.0002V22.6667H9.3335C8.62625 22.6667 7.94798 22.3857 7.44788 21.8856C6.94778 21.3855 6.66683 20.7072 6.66683 20C6.66643 19.5476 6.78114 19.1025 7.00016 18.7067L7.96016 16.7467L3.12016 5.33333H1.3335V4H4.00016L5.1335 6.66667H24.0002C24.7074 6.66667 25.3857 6.94762 25.8858 7.44772C26.3859 7.94781 26.6668 8.62609 26.6668 9.33333C26.6668 10 26.4402 10.56 26.0668 11.0133L22.1868 16.2C21.7068 16.88 20.9068 17.3333 20.0002 17.3333Z" fill="#121B2A"/>
</svg>
