<svg width="32" height="32" viewBox="0 0 32 32" fill="none" xmlns="http://www.w3.org/2000/svg">
<path d="M15.3335 18.6667C20.8535 18.6667 25.3335 20.76 25.3335 23.3334V26.6667H5.3335V23.3334C5.3335 20.76 9.8135 18.6667 15.3335 18.6667ZM24.0002 23.3334C24.0002 21.4934 20.1202 20 15.3335 20C10.5468 20 6.66683 21.4934 6.66683 23.3334V25.3334H24.0002V23.3334ZM15.3335 6.66669C16.5712 6.66669 17.7582 7.15835 18.6333 8.03352C19.5085 8.90869 20.0002 10.0957 20.0002 11.3334C20.0002 12.571 19.5085 13.758 18.6333 14.6332C17.7582 15.5084 16.5712 16 15.3335 16C14.0958 16 12.9088 15.5084 12.0337 14.6332C11.1585 13.758 10.6668 12.571 10.6668 11.3334C10.6668 10.0957 11.1585 8.90869 12.0337 8.03352C12.9088 7.15835 14.0958 6.66669 15.3335 6.66669ZM15.3335 8.00002C14.4494 8.00002 13.6016 8.35121 12.9765 8.97633C12.3514 9.60145 12.0002 10.4493 12.0002 11.3334C12.0002 12.2174 12.3514 13.0653 12.9765 13.6904C13.6016 14.3155 14.4494 14.6667 15.3335 14.6667C16.2176 14.6667 17.0654 14.3155 17.6905 13.6904C18.3156 13.0653 18.6668 12.2174 18.6668 11.3334C18.6668 10.4493 18.3156 9.60145 17.6905 8.97633C17.0654 8.35121 16.2176 8.00002 15.3335 8.00002Z" fill="#121B2A"/>
</svg>
